<svg width="56" height="68" viewBox="0 0 56 68" fill="none" xmlns="http://www.w3.org/2000/svg">
<path d="M28.7451 0.238454C29.87 -0.00482963 31.7034 0.079588 32.9754 0.0273102C42.1128 -0.349497 52.4724 3.11486 52.2325 14.0359C52.1058 19.803 48.0407 23.9721 44.9398 28.7165C47.502 28.566 53.7603 27.9939 55.6299 29.4083C56.0645 30.262 55.8291 31.7113 55.0097 31.8303C52.3955 32.2388 44.7859 32.6448 42.5089 31.8937C38.6928 29.1272 46.8026 20.4371 47.8098 17.5094C53.0722 2.21528 30.8773 1.76582 21.8576 5.70001C14.7414 8.80499 16.2783 15.2114 19.2682 21.0984C21.5067 20.0087 26.3187 15.7951 28.5188 17.2511C30.0036 20.1545 23.6502 22.4456 21.3709 24.0547L21.1174 24.2362C21.8146 25.2738 22.609 26.8947 23.2111 28.0385C25.2278 26.8478 30.3838 22.7471 32.2964 24.5223C32.7808 25.8389 32.4073 26.5233 31.2869 27.2708C29.2589 28.6244 27.0657 29.7747 24.9901 31.0699C25.8729 33.0521 27.1902 35.4175 28.1861 37.4326C29.2861 37.1384 30.42 36.9972 31.5563 37.0133C34.587 37.0522 37.4705 38.3166 39.5529 40.5179C41.5402 42.652 42.6062 45.485 42.5157 48.4001C42.3867 52.1677 40.7163 54.4222 38.0681 56.848C34.4172 59.1077 32.8555 59.1933 28.641 58.9C28.4645 59.21 28.2834 59.5169 28.0955 59.8208C25.9136 63.3524 22.8625 65.8255 18.7635 66.7704C15.2824 67.6023 11.6134 66.9876 8.594 65.0669C5.69458 63.1895 3.66883 60.2305 2.96717 56.8501C1.60913 50.3183 4.54475 46.1739 7.84707 41.121C5.81 41.0583 -0.971178 42.0016 0.117522 38.6006C0.651686 37.8947 1.41221 37.498 2.3402 37.4317C4.58777 37.2708 8.29974 37.0323 10.158 38.401C10.5767 38.709 10.7352 39.3318 10.8755 39.7901C11.9054 43.1366 8.25902 46.2669 7.09336 49.1702C6.35549 51.0119 6.03633 53.2769 6.31247 55.2648C6.64745 57.8162 7.99645 60.125 10.0539 61.6705C12.1815 63.2587 14.8704 63.8349 17.4711 63.4058C21.5452 62.7339 23.288 60.5407 25.522 57.4222C19.0464 52.0147 18.4398 44.5274 25.2187 39.0715C24.1549 37.3462 22.8987 34.8042 21.9436 32.9856C19.8794 34.0269 16.2624 37.2581 14.2208 35.767C13.3426 33.6075 15.0832 32.8799 16.7264 31.9009C17.8717 31.2179 18.9853 30.5575 20.1147 29.8453C19.3859 28.4062 18.8676 27.3851 17.9826 26.0159C16.4616 26.9436 12.8107 29.3678 11.292 29.5631C8.68 28.869 9.99505 26.6315 11.6156 25.6961C13.1978 24.7825 14.8161 23.8316 16.3937 22.9225C11.3395 15.5776 11.7763 6.50432 20.6036 2.34699C23.4193 1.02149 25.728 0.646945 28.7451 0.238454ZM33.0343 55.3336C37.0405 54.4745 39.6004 50.5412 38.763 46.5308C37.9255 42.5203 34.0053 39.9392 29.99 40.7544C25.943 41.5757 23.3378 45.5323 24.1821 49.5737C25.0241 53.6154 28.9964 56.1992 33.0343 55.3336Z" fill="#1D1D1D"/>
</svg>
